<svg class="w-6 h-6" width="24" height="24" viewBox="0 0 24 24" fill="none" xmlns="http://www.w3.org/2000/svg"><path d="M12.1181 1.00684C12.3904 1.03921 12.6397 1.1829 12.8047 1.40625C12.9929 1.66142 13.0492 1.99084 12.956 2.29395C12.7955 2.81519 12.7797 3.37107 12.9111 3.90039C13.0426 4.42958 13.3156 4.91326 13.7012 5.29883C14.0867 5.68439 14.5704 5.95742 15.0996 6.08887C15.6289 6.22028 16.1848 6.20444 16.706 6.04395L16.8398 6.0127C17.1543 5.96163 17.4778 6.0638 17.707 6.29297C17.9689 6.55484 18.0649 6.93998 17.956 7.29395C17.7955 7.81519 17.7797 8.37107 17.9111 8.90039C18.0426 9.42958 18.3156 9.91326 18.7012 10.2988C19.0867 10.6844 19.5704 10.9574 20.0996 11.0889C20.6289 11.2203 21.1848 11.2044 21.706 11.0439C22.0091 10.9508 22.3386 11.007 22.5937 11.1953C22.849 11.3838 23 11.6826 23 12C23 14.1756 22.3551 16.3024 21.1465 18.1113C19.9378 19.9202 18.2198 21.3305 16.2099 22.1631C14.2001 22.9956 11.9881 23.2134 9.85447 22.7891C7.72068 22.3646 5.76004 21.3167 4.22166 19.7783C2.68328 18.2399 1.63535 16.2793 1.21092 14.1455C0.786625 12.0119 1.0044 9.79985 1.83689 7.79004C2.66947 5.78015 4.07978 4.06216 5.88865 2.85352C7.69757 1.64487 9.82443 1 12 1L12.1181 1.00684ZM10.8252 3.07812C9.46182 3.25765 8.15204 3.74686 6.99998 4.5166C5.52003 5.50547 4.36673 6.91127 3.68553 8.55566C3.00434 10.2002 2.82556 12.01 3.17283 13.7559C3.5201 15.5017 4.37706 17.1056 5.63572 18.3643C6.89439 19.6229 8.4983 20.4799 10.2441 20.8271C11.9899 21.1744 13.7998 20.9956 15.4443 20.3145C17.0887 19.6332 18.4945 18.4799 19.4834 17C20.2533 15.8477 20.7414 14.5375 20.9209 13.1738C20.4841 13.1824 20.046 13.1365 19.6181 13.0303C18.7359 12.8112 17.9298 12.3556 17.2871 11.7129C16.6443 11.0701 16.1887 10.264 15.9697 9.38184C15.8712 8.98489 15.8249 8.57913 15.8252 8.17383C15.4202 8.17402 15.0148 8.12873 14.6181 8.03027C13.7359 7.81125 12.9298 7.35564 12.2871 6.71289C11.6443 6.07014 11.1887 5.26404 10.9697 4.38184C10.8634 3.95363 10.8165 3.51522 10.8252 3.07812Z" fill="#686583" style="fill-opacity:1;"/><path d="M7.5 8.50977V8.5C7.5 7.94772 7.94772 7.5 8.5 7.5C9.05228 7.5 9.5 7.94772 9.5 8.5V8.50977C9.5 9.06205 9.05228 9.50977 8.5 9.50977C7.94772 9.50977 7.5 9.06205 7.5 8.50977Z" fill="#686583" style="fill-opacity:1;"/><path d="M15 15.5098V15.5C15 14.9477 15.4477 14.5 16 14.5C16.5523 14.5 17 14.9477 17 15.5V15.5098C17 16.0621 16.5523 16.5098 16 16.5098C15.4477 16.5098 15 16.0621 15 15.5098Z" fill="#686583" style="fill-opacity:1;"/><path d="M11 12.0098V12C11 11.4477 11.4477 11 12 11C12.5523 11 13 11.4477 13 12V12.0098C13 12.5621 12.5523 13.0098 12 13.0098C11.4477 13.0098 11 12.5621 11 12.0098Z" fill="#686583" style="fill-opacity:1;"/><path d="M10 17.0098V17C10 16.4477 10.4477 16 11 16C11.5523 16 12 16.4477 12 17V17.0098C12 17.5621 11.5523 18.0098 11 18.0098C10.4477 18.0098 10 17.5621 10 17.0098Z" fill="#686583" style="fill-opacity:1;"/><path d="M6 14.0098V14C6 13.4477 6.44772 13 7 13C7.55228 13 8 13.4477 8 14V14.0098C8 14.5621 7.55228 15.0098 7 15.0098C6.44772 15.0098 6 14.5621 6 14.0098Z" fill="#686583" style="fill-opacity:1;"/></svg>