<svg class="w-6 h-6" width="24" height="24" viewBox="0 0 24 24" fill="none" xmlns="http://www.w3.org/2000/svg"><path d="M17 20C17.5523 20 18 20.4477 18 21C18 21.5523 17.5523 22 17 22H7C6.44772 22 6 21.5523 6 21C6 20.4477 6.44772 20 7 20H17Z" fill="#686583" style="fill-opacity:1;"/><path d="M21 11C21.2652 11 21.5195 11.1054 21.707 11.293C21.8946 11.4805 22 11.7348 22 12C22 14.6522 20.9467 17.1959 19.0713 19.0713C17.3132 20.8294 14.9676 21.8646 12.4961 21.9873L12 22C9.34784 22 6.80407 20.9467 4.92871 19.0713C3.05335 17.1959 2 14.6522 2 12C2 11.7348 2.10543 11.4805 2.29297 11.293C2.48051 11.1054 2.73478 11 3 11H21ZM4.06543 13C4.28631 14.7529 5.08023 16.3947 6.34277 17.6572C7.84306 19.1575 9.87827 20 12 20L12.3965 19.9902C14.3739 19.8922 16.2507 19.0638 17.6572 17.6572C18.9198 16.3947 19.7137 14.7529 19.9346 13H4.06543Z" fill="#686583" style="fill-opacity:1;"/><path d="M20.9313 12.1929C20.8248 12.7347 20.2993 13.0873 19.7574 12.981C19.2155 12.8746 18.862 12.3491 18.9684 11.8072L20.9313 12.1929ZM19.3356 2.32281C20.1658 2.37238 20.9496 2.72496 21.5377 3.31305C22.1256 3.90107 22.4774 4.68423 22.527 5.51422C22.5622 6.10364 22.4401 6.68632 22.1842 7.20953C22.307 7.47336 22.3969 7.75227 22.4488 8.04059C22.5431 8.56402 22.5135 9.10305 22.3619 9.61285C22.2103 10.1225 21.9406 10.5893 21.5758 10.9761C21.4009 11.1616 21.206 11.3254 20.9957 11.4664C20.9992 11.7093 20.9783 11.9531 20.9313 12.1929L18.9684 11.8072C19.0113 11.5882 19.0056 11.3624 18.9508 11.1461C18.8245 10.6479 19.0965 10.1346 19.5797 9.95953C19.7854 9.88497 19.9706 9.7632 20.1207 9.60406C20.271 9.44474 20.3825 9.25246 20.4449 9.04254C20.5073 8.83263 20.5189 8.6106 20.4801 8.39508C20.4412 8.17969 20.3529 7.97619 20.2213 7.80133C19.9485 7.43901 19.9537 6.93817 20.234 6.5816L20.3082 6.47809C20.4699 6.22845 20.5487 5.93248 20.5309 5.63336C20.5104 5.29157 20.3648 4.96923 20.1227 4.72711C19.8805 4.48503 19.5582 4.34029 19.2164 4.31988C18.8747 4.2995 18.5373 4.40437 18.2682 4.61578C17.9561 4.86105 17.5335 4.89633 17.1901 4.71832L17.0484 4.62848C16.8941 4.51219 16.7169 4.42897 16.5289 4.38434C16.341 4.33977 16.1457 4.33519 15.9557 4.36969C15.7656 4.40422 15.5847 4.47765 15.4244 4.58551C15.3042 4.6664 15.1976 4.76528 15.108 4.87848L15.024 4.99664C14.7689 5.39798 14.266 5.56434 13.8219 5.3941C13.5853 5.30341 13.3283 5.27803 13.0787 5.32184C12.8293 5.36565 12.5964 5.47647 12.4049 5.64215C12.2133 5.80802 12.07 6.02346 11.9908 6.26422C11.9118 6.50483 11.8999 6.76231 11.9557 7.00934C12.0166 7.27882 11.9631 7.5618 11.8082 7.79059C11.6532 8.01941 11.4102 8.17386 11.1373 8.21735C10.7884 8.27294 10.4734 8.45876 10.2555 8.73688C10.0377 9.01497 9.93299 9.36534 9.96251 9.71735C9.99208 10.0693 10.1536 10.3974 10.4147 10.6353C10.6432 10.8435 10.9333 10.9687 11.2389 10.9947L11.3707 11.0005L11.4733 11.0045C11.9778 11.0511 12.3747 11.4731 12.3795 11.9908C12.3843 12.5084 11.9954 12.9377 11.4918 12.9937L11.3893 12.9996L11.2291 12.9976C10.4288 12.9674 9.66262 12.6555 9.06798 12.1138C8.43374 11.536 8.04106 10.7393 7.96935 9.88434C7.89765 9.02935 8.15215 8.17889 8.68126 7.50348C9.01496 7.07754 9.44263 6.74144 9.9254 6.51715C9.9415 6.21995 9.99764 5.92456 10.0914 5.63922C10.2836 5.05477 10.6302 4.53313 11.0953 4.13043C11.5606 3.72766 12.1269 3.45853 12.733 3.35211C13.0895 3.28955 13.4521 3.28613 13.8072 3.33746C13.9603 3.1851 14.1281 3.04752 14.3082 2.92633C14.6975 2.66441 15.1366 2.48577 15.5983 2.40192C16.06 2.31809 16.5342 2.33067 16.9908 2.43903C17.2154 2.49232 17.4331 2.56865 17.6412 2.66559C18.1642 2.4099 18.7465 2.28767 19.3356 2.32281Z" fill="#686583" style="fill-opacity:1;"/><path d="M16.3691 7.22462C16.7619 6.90427 17.3409 6.92686 17.707 7.29298C18.0731 7.65909 18.0957 8.2381 17.7754 8.63087L17.707 8.70704L13.707 12.707C13.3165 13.0976 12.6835 13.0976 12.293 12.707C11.9024 12.3165 11.9024 11.6835 12.293 11.293L16.293 7.29298L16.3691 7.22462Z" fill="#686583" style="fill-opacity:1;"/><path d="M6.14253 5.34425C7.07389 4.97307 8.09551 4.89106 9.07417 5.1089C10.0528 5.32676 10.9429 5.83475 11.6289 6.56593C12.0067 6.96872 11.9867 7.60116 11.5839 7.97901C11.1812 8.35684 10.5487 8.33683 10.1708 7.93409C9.75981 7.49591 9.22604 7.1916 8.6396 7.06105C8.05319 6.93052 7.44083 6.98023 6.88276 7.20265C6.32479 7.4251 5.8465 7.81007 5.51069 8.30812C5.17487 8.80618 4.99696 9.39395 4.99995 9.99464V9.99952L5.00678 10.2026C5.03875 10.6703 5.18051 11.1088 5.4062 11.5005L5.45307 11.5923C5.6602 12.0547 5.48749 12.6083 5.03901 12.8667C4.56064 13.1421 3.94954 12.9777 3.67378 12.4995L3.52339 12.2192C3.23984 11.6485 3.05789 11.0146 3.01167 10.3403L2.99995 9.99952C2.99598 8.99879 3.29298 8.01977 3.85249 7.18995C4.41302 6.35864 5.21114 5.71546 6.14253 5.34425Z" fill="#686583" style="fill-opacity:1;"/></svg>